<svg width="857" height="184" viewBox="0 0 857 184" fill="none" xmlns="http://www.w3.org/2000/svg">
<path d="M0 34C0 25.1634 7.16344 18 16 18H841C849.837 18 857 25.1634 857 34V128C857 136.837 849.837 144 841 144H16C7.16345 144 0 136.837 0 128V34Z" fill="#007AFF" fill-opacity="0.9"/>
<path d="M77.75 47L82.5 126.25C89.9167 126.25 97.3333 125.792 104.75 124.875C112.25 123.875 119.917 122.958 127.75 122.125L128.25 126.25C128.167 126.25 127.375 126.375 125.875 126.625C124.458 126.792 122.542 127.042 120.125 127.375C117.792 127.625 115.125 127.917 112.125 128.25C109.125 128.583 106.125 128.917 103.125 129.25C100.125 129.583 97.25 129.917 94.5 130.25C91.75 130.583 89.375 130.833 87.375 131C87.2917 131 87.0833 131 86.75 131C86.4167 131.083 86.0417 131.125 85.625 131.125C85.2083 131.125 84.7917 131.125 84.375 131.125C83.9583 131.125 83.625 131.125 83.375 131.125C81.5417 131.125 80.0417 130.167 78.875 128.25C77.7083 126.25 76.75 123.583 76 120.25C75.25 116.833 74.7083 112.958 74.375 108.625C74.0417 104.208 73.7917 99.625 73.625 94.875C73.4583 90.125 73.375 85.3333 73.375 80.5C73.4583 75.6667 73.5 71.125 73.5 66.875C73.5 62.5417 73.4583 58.625 73.375 55.125C73.375 51.625 73.25 48.9167 73 47H77.75ZM133 43.125C133 42.125 133.333 41.3333 134 40.75C134.75 40.0833 135.625 39.75 136.625 39.75C136.708 39.75 136.917 39.75 137.25 39.75C137.583 39.75 137.792 39.75 137.875 39.75C138.292 46.75 138.667 53.4167 139 59.75C139.333 66 139.583 72.1667 139.75 78.25C140 84.3333 140.167 90.4167 140.25 96.5C140.333 102.5 140.375 108.792 140.375 115.375C140.375 116.292 140.417 117.542 140.5 119.125C140.667 120.708 140.792 122.25 140.875 123.75C141.042 125.25 141.167 126.625 141.25 127.875C141.417 129.042 141.5 129.667 141.5 129.75L136.125 130.75C135.958 127.333 135.792 123.417 135.625 119C135.458 114.5 135.292 109.75 135.125 104.75C135.042 99.6667 134.917 94.4583 134.75 89.125C134.667 83.7083 134.5 78.375 134.25 73.125C134.083 67.875 133.875 62.8333 133.625 58C133.458 53.0833 133.25 48.625 133 44.625V43.125ZM145.5 49.5L149.25 45.75L189.375 116.625L203.125 42.25H207.125L193.5 128.625L190.5 131.75L145.5 49.5ZM211.625 63.75C212.958 61.8333 214.708 60.2083 216.875 58.875C219.125 57.4583 221.583 56.2917 224.25 55.375C227 54.4583 229.917 53.75 233 53.25C236.167 52.75 239.25 52.375 242.25 52.125C245.25 51.875 248.167 51.7083 251 51.625C253.833 51.5417 256.333 51.5 258.5 51.5C258.667 51.5 259.042 51.5417 259.625 51.625C260.208 51.625 260.833 51.6667 261.5 51.75C262.167 51.75 262.75 51.75 263.25 51.75C263.833 51.75 264.25 51.75 264.5 51.75C264.833 53.5833 264.625 54.875 263.875 55.625C263.208 56.2917 262.292 56.7083 261.125 56.875C260.042 56.9583 258.875 56.9167 257.625 56.75C256.375 56.5 255.458 56.4583 254.875 56.625C254.042 56.7083 252.708 56.9583 250.875 57.375C249.125 57.7083 247.167 58.125 245 58.625C242.833 59.0417 240.5 59.5417 238 60.125C235.583 60.625 233.25 61.125 231 61.625C228.833 62.0417 226.875 62.4583 225.125 62.875C223.375 63.2917 222.083 63.5833 221.25 63.75C219.917 64.25 219.167 64.875 219 65.625C218.833 66.375 218.75 67.25 218.75 68.25C218.75 70 218.833 71.9583 219 74.125C219.25 76.2917 219.5 78.4583 219.75 80.625C220.083 82.7083 220.375 84.625 220.625 86.375C220.958 88.125 221.167 89.4167 221.25 90.25C221.583 90.3333 222.208 90.375 223.125 90.375C224.042 90.375 224.667 90.375 225 90.375C226.917 90.375 228.792 90.2083 230.625 89.875C232.458 89.5417 234.292 89.1667 236.125 88.75C237.958 88.3333 239.833 88 241.75 87.75C243.667 87.4167 245.625 87.25 247.625 87.25V91.875C246.792 91.875 245.625 91.9583 244.125 92.125C242.625 92.2083 240.958 92.4167 239.125 92.75C237.375 93.0833 235.583 93.4583 233.75 93.875C231.917 94.2083 230.25 94.5833 228.75 95C227.25 95.4167 226 95.8333 225 96.25C224.083 96.6667 223.625 97.0833 223.625 97.5V123.5C227.542 123.5 231.417 123.375 235.25 123.125C239.167 122.875 243.083 122.625 247 122.375C250.917 122.042 254.833 121.75 258.75 121.5C262.667 121.25 266.583 121.125 270.5 121.125C270.5 122.125 270.167 122.958 269.5 123.625C268.833 124.208 268.042 124.708 267.125 125.125C266.292 125.458 265.375 125.708 264.375 125.875C263.375 126.042 262.625 126.167 262.125 126.25C261.792 126.333 260.75 126.458 259 126.625C257.25 126.792 255.083 127.042 252.5 127.375C249.917 127.708 247.042 128.042 243.875 128.375C240.708 128.708 237.583 129.042 234.5 129.375C231.417 129.708 228.5 130.042 225.75 130.375C223 130.625 220.708 130.833 218.875 131C218.625 131.083 218.25 131.125 217.75 131.125C217.75 119.958 217.375 108.708 216.625 97.375C215.958 85.9583 214.292 74.75 211.625 63.75Z" fill="white"/>
<path d="M434.125 131.25C433.792 129.75 433.375 127.792 432.875 125.375C432.375 122.875 431.708 120.208 430.875 117.375C430.125 114.458 429.167 111.542 428 108.625C426.917 105.708 425.583 103.083 424 100.75C422.417 98.3333 420.583 96.375 418.5 94.875C416.5 93.375 414.125 92.625 411.375 92.625C410.292 92.625 408.875 92.7083 407.125 92.875C405.375 93.0417 403.667 93.3333 402 93.75C400.333 94.0833 398.875 94.5833 397.625 95.25C396.375 95.9167 395.75 96.7083 395.75 97.625V129.375C395.417 129.375 394.917 129.292 394.25 129.125C393.583 128.958 392.917 128.75 392.25 128.5C391.583 128.167 391 127.833 390.5 127.5C390 127.167 389.75 126.792 389.75 126.375V64C388.75 64.1667 387.875 64.625 387.125 65.375C386.375 66.0417 385.75 66.875 385.25 67.875C384.833 68.875 384.5 69.875 384.25 70.875C384 71.875 383.833 72.7917 383.75 73.625C383.417 73.625 382.958 73.4583 382.375 73.125C381.792 72.7083 381.25 72.25 380.75 71.75C380.25 71.25 379.833 70.75 379.5 70.25C379.083 69.6667 378.875 69.1667 378.875 68.75C378.875 66.6667 379.5 64.6667 380.75 62.75C382 60.75 383.625 58.9583 385.625 57.375C387.625 55.7083 389.833 54.25 392.25 53C394.75 51.6667 397.25 50.5417 399.75 49.625C402.25 48.7083 404.625 48 406.875 47.5C409.125 47 411.042 46.75 412.625 46.75C414.958 46.75 417.167 46.8333 419.25 47C421.333 47.1667 423.125 47.6667 424.625 48.5C426.208 49.25 427.458 50.4583 428.375 52.125C429.292 53.7917 429.75 56.0417 429.75 58.875C429.75 61.4583 429.292 64 428.375 66.5C427.458 68.9167 426.292 71.25 424.875 73.5C423.458 75.75 421.875 77.9167 420.125 80C418.375 82 416.625 83.875 414.875 85.625C418.792 88.0417 421.958 90.5 424.375 93C426.792 95.4167 428.75 97.875 430.25 100.375C431.75 102.792 432.875 105.25 433.625 107.75C434.458 110.167 435.083 112.667 435.5 115.25C436 117.833 436.458 120.458 436.875 123.125C437.375 125.792 438.042 128.5 438.875 131.25H434.125ZM413.125 51.75C412.542 51.75 411.708 51.7917 410.625 51.875C409.625 51.875 408.458 51.9583 407.125 52.125C405.792 52.2917 404.458 52.5417 403.125 52.875C401.875 53.2083 400.667 53.6667 399.5 54.25C398.417 54.8333 397.5 55.5417 396.75 56.375C396.083 57.125 395.75 58.0833 395.75 59.25V91C397.75 91 399.833 90.5 402 89.5C404.167 88.5 406.292 87.1667 408.375 85.5C410.542 83.75 412.625 81.8333 414.625 79.75C416.625 77.5833 418.375 75.375 419.875 73.125C421.375 70.875 422.583 68.625 423.5 66.375C424.417 64.125 424.875 62.125 424.875 60.375C424.875 58.4583 424.542 56.9583 423.875 55.875C423.292 54.7083 422.458 53.8333 421.375 53.25C420.292 52.5833 419.042 52.1667 417.625 52C416.208 51.8333 414.708 51.75 413.125 51.75ZM447.5 43.125C447.5 42.125 447.833 41.3333 448.5 40.75C449.25 40.0833 450.125 39.75 451.125 39.75C451.208 39.75 451.417 39.75 451.75 39.75C452.083 39.75 452.292 39.75 452.375 39.75C452.792 46.75 453.167 53.4167 453.5 59.75C453.833 66 454.083 72.1667 454.25 78.25C454.5 84.3333 454.667 90.4167 454.75 96.5C454.833 102.5 454.875 108.792 454.875 115.375C454.875 116.292 454.917 117.542 455 119.125C455.167 120.708 455.292 122.25 455.375 123.75C455.542 125.25 455.667 126.625 455.75 127.875C455.917 129.042 456 129.667 456 129.75L450.625 130.75C450.458 127.333 450.292 123.417 450.125 119C449.958 114.5 449.792 109.75 449.625 104.75C449.542 99.6667 449.417 94.4583 449.25 89.125C449.167 83.7083 449 78.375 448.75 73.125C448.583 67.875 448.375 62.8333 448.125 58C447.958 53.0833 447.75 48.625 447.5 44.625V43.125ZM464.375 68.625C464.042 68.5417 463.625 68.2917 463.125 67.875C462.708 67.4583 462.292 67 461.875 66.5C461.542 66 461.25 65.5 461 65C460.75 64.5 460.625 64.0833 460.625 63.75C460.875 61 461.875 58.9583 463.625 57.625C465.458 56.2083 467.542 55.25 469.875 54.75C472.208 54.25 474.625 54 477.125 54C479.625 54 481.75 54 483.5 54C486.417 54 489.083 54.1667 491.5 54.5C494 54.75 496.167 55.4167 498 56.5C499.833 57.5 501.292 58.9583 502.375 60.875C503.458 62.7917 504 65.4167 504 68.75C504 70.4167 503.917 71.9167 503.75 73.25C503.667 74.5 503.458 75.75 503.125 77C502.792 78.1667 502.292 79.4583 501.625 80.875C500.958 82.2083 500.083 83.75 499 85.5C502.417 86.5833 505.25 87.625 507.5 88.625C509.75 89.5417 511.5 90.7083 512.75 92.125C514 93.4583 514.833 95.125 515.25 97.125C515.75 99.0417 516 101.542 516 104.625C516 108.292 515.208 111.75 513.625 115C512.042 118.25 509.917 121.083 507.25 123.5C504.667 125.917 501.625 127.833 498.125 129.25C494.625 130.583 490.917 131.25 487 131.25C486.167 131.25 485.042 131.125 483.625 130.875C482.208 130.542 480.667 130.167 479 129.75C477.333 129.25 475.625 128.708 473.875 128.125C472.125 127.458 470.542 126.75 469.125 126C467.708 125.25 466.542 124.5 465.625 123.75C464.792 123 464.375 122.25 464.375 121.5V68.625ZM472.625 97.5C472.792 99.5 472.708 101.583 472.375 103.75C472.042 105.917 471.75 108 471.5 110C471.25 112 471.167 113.917 471.25 115.75C471.333 117.5 471.833 119.083 472.75 120.5C473.667 121.917 475.167 123.167 477.25 124.25C479.333 125.25 482.208 125.958 485.875 126.375C488.958 126.375 492 125.833 495 124.75C498.083 123.583 500.792 122.042 503.125 120.125C505.542 118.125 507.5 115.792 509 113.125C510.5 110.375 511.25 107.375 511.25 104.125C511.25 101.958 510.875 100.125 510.125 98.625C509.375 97.125 508.375 95.9167 507.125 95C505.875 94 504.375 93.2917 502.625 92.875C500.958 92.4583 499.167 92.25 497.25 92.25C494.833 92.25 492.667 92.3333 490.75 92.5C488.833 92.5833 486.917 92.8333 485 93.25C483.167 93.5833 481.25 94.125 479.25 94.875C477.333 95.5417 475.125 96.4167 472.625 97.5ZM470.125 84.5C470.125 85.1667 470.167 85.875 470.25 86.625C470.333 87.2917 470.458 87.9167 470.625 88.5C470.875 89 471.25 89.4583 471.75 89.875C472.25 90.2083 472.917 90.375 473.75 90.375C476.583 90.375 479.5 89.8333 482.5 88.75C485.5 87.6667 488.208 86.1667 490.625 84.25C493.125 82.3333 495.167 80.0833 496.75 77.5C498.417 74.8333 499.25 71.875 499.25 68.625C499.25 68.2917 499.167 67.8333 499 67.25C498.833 66.5833 498.458 65.9167 497.875 65.25C497.292 64.5833 496.417 63.9583 495.25 63.375C494.083 62.7083 492.5 62.1667 490.5 61.75C488.583 61.3333 486.167 61.0833 483.25 61C480.333 60.9167 476.792 61.0833 472.625 61.5C472.458 61.6667 472.25 62.2083 472 63.125C471.833 64.0417 471.625 65.2083 471.375 66.625C471.208 67.9583 471.042 69.4583 470.875 71.125C470.792 72.7083 470.667 74.3333 470.5 76C470.417 77.5833 470.333 79.125 470.25 80.625C470.167 82.125 470.125 83.4167 470.125 84.5Z" fill="white"/>
<path d="M315.536 94.904L316.496 94.008C317.776 94.9467 319.12 95.736 320.528 96.376C321.979 96.9733 323.621 97.272 325.456 97.272C327.717 97.272 329.829 97.1227 331.792 96.824C333.755 96.4827 335.461 96.0987 336.912 95.672C338.405 95.2027 339.579 94.7973 340.432 94.456C341.797 93.9013 342.757 93.4747 343.312 93.176C343.867 92.8773 344.272 92.728 344.528 92.728C345.211 92.7707 345.936 92.9627 346.704 93.304C347.472 93.6453 347.856 94.136 347.856 94.776C347.856 95.3733 347.621 95.8427 347.152 96.184C346.725 96.5253 345.979 96.9093 344.912 97.336C344.101 97.592 342.971 97.9333 341.52 98.36C340.069 98.744 338.448 99.128 336.656 99.512C334.907 99.8533 333.072 100.152 331.152 100.408C329.232 100.621 327.376 100.728 325.584 100.728C324.261 100.728 323.067 100.6 322 100.344C320.933 100.045 319.888 99.4693 318.864 98.616C317.84 97.7627 316.731 96.5253 315.536 94.904ZM327.184 85.368L327.056 84.024C327.696 83.7253 328.443 83.448 329.296 83.192C330.192 82.936 331.003 82.808 331.728 82.808C332.624 82.808 333.541 82.9787 334.48 83.32C335.419 83.6613 336.208 84.088 336.848 84.6C337.488 85.0693 337.808 85.56 337.808 86.072C337.808 86.456 337.744 86.8187 337.616 87.16C337.531 87.5013 337.403 87.928 337.232 88.44C337.104 88.9093 336.955 89.6133 336.784 90.552C336.656 91.2773 336.549 92.1093 336.464 93.048C336.379 93.9867 336.315 94.9893 336.272 96.056C336.229 97.1227 336.208 98.2533 336.208 99.448C336.208 102.733 336.315 105.933 336.528 109.048C336.741 112.12 336.955 114.915 337.168 117.432C337.381 119.949 337.488 121.955 337.488 123.448C337.488 125.027 337.125 126.456 336.4 127.736C335.675 129.016 334.523 130.019 332.944 130.744C331.365 131.427 329.253 131.768 326.608 131.768C324.688 131.768 322.96 131.491 321.424 130.936C319.888 130.381 318.651 129.549 317.712 128.44C316.816 127.331 316.368 126.029 316.368 124.536C316.368 122.701 316.923 121.208 318.032 120.056C319.141 118.861 320.656 117.987 322.576 117.432C324.496 116.877 326.608 116.6 328.912 116.6C332.24 116.6 335.12 116.984 337.552 117.752C340.027 118.52 342.096 119.437 343.76 120.504C345.467 121.571 346.789 122.552 347.728 123.448C348.368 124.045 348.859 124.643 349.2 125.24C349.584 125.837 349.776 126.435 349.776 127.032C349.776 127.629 349.627 128.12 349.328 128.504C349.072 128.888 348.667 129.08 348.112 129.08C347.643 129.08 347.195 128.909 346.768 128.568C346.341 128.227 345.808 127.757 345.168 127.16C343.675 125.667 342.053 124.344 340.304 123.192C338.597 122.04 336.656 121.123 334.48 120.44C332.347 119.757 329.872 119.416 327.056 119.416C325.733 119.416 324.432 119.608 323.152 119.992C321.872 120.333 320.805 120.867 319.952 121.592C319.141 122.275 318.736 123.128 318.736 124.152C318.736 125.603 319.376 126.648 320.656 127.288C321.936 127.928 323.536 128.248 325.456 128.248C327.803 128.248 329.552 127.971 330.704 127.416C331.856 126.819 332.624 125.965 333.008 124.856C333.435 123.704 333.648 122.253 333.648 120.504C333.648 119.565 333.605 118.285 333.52 116.664C333.477 115.043 333.392 113.251 333.264 111.288C333.179 109.283 333.093 107.256 333.008 105.208C332.923 103.16 332.859 101.219 332.816 99.384C332.816 98.2747 332.816 96.9947 332.816 95.544C332.816 94.0507 332.816 92.6213 332.816 91.256C332.816 89.848 332.816 88.7813 332.816 88.056C332.816 87.544 332.773 87.16 332.688 86.904C332.645 86.648 332.539 86.456 332.368 86.328C332.197 86.1573 331.963 86.0293 331.664 85.944C331.067 85.7733 330.384 85.6453 329.616 85.56C328.848 85.432 328.037 85.368 327.184 85.368ZM298.448 83.704L299.472 82.872C300.197 83.1707 300.773 83.448 301.2 83.704C301.627 83.9173 302.139 84.28 302.736 84.792C303.163 85.0907 303.717 85.6453 304.4 86.456C305.083 87.224 305.68 88.0773 306.192 89.016C306.747 89.9547 307.024 90.872 307.024 91.768C307.024 92.4507 306.811 93.2187 306.384 94.072C305.957 94.8827 305.339 96.248 304.528 98.168C304.059 99.3627 303.483 100.856 302.8 102.648C302.16 104.44 301.584 106.403 301.072 108.536C300.603 110.669 300.368 112.845 300.368 115.064C300.368 116.771 300.475 118.115 300.688 119.096C300.901 120.077 301.2 120.888 301.584 121.528C301.797 121.912 302.032 122.125 302.288 122.168C302.544 122.211 302.8 121.997 303.056 121.528C303.397 121.016 303.845 120.163 304.4 118.968C304.955 117.773 305.531 116.451 306.128 115C306.768 113.549 307.365 112.163 307.92 110.84C308.517 109.475 309.008 108.387 309.392 107.576L310.928 108.344C310.629 109.155 310.245 110.2 309.776 111.48C309.307 112.717 308.837 113.997 308.368 115.32C307.899 116.6 307.451 117.795 307.024 118.904C306.64 120.013 306.341 120.867 306.128 121.464C305.829 122.488 305.573 123.363 305.36 124.088C305.189 124.771 305.104 125.368 305.104 125.88C305.104 126.861 305.253 127.821 305.552 128.76C305.851 129.699 306 130.573 306 131.384C306 132.707 305.403 133.368 304.208 133.368C303.653 133.368 303.12 133.133 302.608 132.664C302.096 132.195 301.605 131.619 301.136 130.936C300.581 130.083 300.005 128.888 299.408 127.352C298.853 125.816 298.384 124.067 298 122.104C297.616 120.141 297.424 118.093 297.424 115.96C297.424 113.4 297.595 111.011 297.936 108.792C298.32 106.573 298.747 104.568 299.216 102.776C299.728 100.941 300.155 99.384 300.496 98.104C300.923 96.568 301.285 95.2027 301.584 94.008C301.925 92.8133 302.117 91.704 302.16 90.68C302.203 89.528 301.861 88.4187 301.136 87.352C300.453 86.2427 299.557 85.0267 298.448 83.704Z" fill="white"/>
<path d="M568.888 102.632C570.2 101.896 571.512 101.32 572.824 100.904C574.136 100.488 575.432 100.184 576.712 99.992C578.024 99.768 579.24 99.656 580.36 99.656C582.024 99.656 583.352 99.736 584.344 99.896C585.368 100.056 586.264 100.312 587.032 100.664C587.544 100.856 587.912 101.112 588.136 101.432C588.36 101.752 588.472 102.056 588.472 102.344C588.472 102.632 588.376 102.888 588.184 103.112C587.992 103.304 587.656 103.448 587.176 103.544C586.6 103.576 585.992 103.656 585.352 103.784C584.744 103.912 584.04 104.136 583.24 104.456C582.568 104.776 581.752 105.192 580.792 105.704C579.864 106.184 578.92 106.712 577.96 107.288C577 107.832 576.136 108.344 575.368 108.824L574.552 107.96C575.288 107.416 576.088 106.84 576.952 106.232C577.848 105.592 578.68 104.984 579.448 104.408C580.216 103.8 580.776 103.352 581.128 103.064C581.32 102.872 581.4 102.712 581.368 102.584C581.368 102.456 581.16 102.36 580.744 102.296C580.328 102.232 579.576 102.2 578.488 102.2C577.496 102.2 576.232 102.312 574.696 102.536C573.16 102.728 571.384 103.144 569.368 103.784L568.888 102.632ZM568.36 117.656C568.52 118.232 568.712 118.92 568.936 119.72C569.16 120.52 569.432 121.224 569.752 121.832C570.296 122.76 570.968 123.56 571.768 124.232C572.6 124.904 573.656 125.432 574.936 125.816C576.248 126.168 577.88 126.344 579.832 126.344C581.56 126.344 582.952 126.28 584.008 126.152C585.064 125.992 585.896 125.848 586.504 125.72C587.112 125.56 587.608 125.48 587.992 125.48C588.44 125.48 588.84 125.544 589.192 125.672C589.576 125.768 589.896 125.928 590.152 126.152C590.408 126.344 590.536 126.632 590.536 127.016C590.536 127.656 590.088 128.168 589.192 128.552C588.296 128.904 587.128 129.16 585.688 129.32C584.248 129.448 582.648 129.512 580.888 129.512C578.392 129.512 576.264 129.24 574.504 128.696C572.744 128.152 571.32 127.336 570.232 126.248C569.144 125.128 568.36 123.752 567.88 122.12C567.688 121.384 567.544 120.648 567.448 119.912C567.352 119.176 567.288 118.488 567.256 117.848L568.36 117.656ZM554.344 96.44C555.144 97.304 555.8 98.152 556.312 98.984C556.824 99.784 557.064 100.616 557.032 101.48C557 102.28 556.856 103.128 556.6 104.024C556.376 104.888 556.12 105.896 555.832 107.048C555.576 108.008 555.256 109.112 554.872 110.36C554.52 111.608 554.2 113 553.912 114.536C553.656 116.072 553.528 117.8 553.528 119.72C553.528 121.192 553.672 122.632 553.96 124.04C554.248 125.416 554.6 126.664 555.016 127.784C555.432 128.904 555.864 129.8 556.312 130.472C556.6 130.984 556.936 131.4 557.32 131.72C557.736 132.072 558.152 132.248 558.568 132.248C559.496 132.248 559.96 131.768 559.96 130.808C559.96 130.232 559.8 129.576 559.48 128.84C559.16 128.104 559 127.4 559 126.728C559 126.28 559.08 125.784 559.24 125.24C559.4 124.664 559.592 124.008 559.816 123.272C559.944 122.824 560.152 122.2 560.44 121.4C560.76 120.568 561.112 119.672 561.496 118.712C561.912 117.72 562.296 116.76 562.648 115.832C563 114.904 563.304 114.136 563.56 113.528L562.408 112.952C562.152 113.56 561.8 114.344 561.352 115.304C560.936 116.264 560.488 117.272 560.008 118.328C559.528 119.352 559.064 120.296 558.616 121.16C558.2 121.992 557.864 122.632 557.608 123.08C557.224 123.688 556.872 123.672 556.552 123.032C556.36 122.712 556.184 122.264 556.024 121.688C555.864 121.112 555.784 120.184 555.784 118.904C555.784 117.336 555.96 115.816 556.312 114.344C556.664 112.872 557.064 111.528 557.512 110.312C557.992 109.096 558.44 108.04 558.856 107.144C559.432 105.704 559.88 104.68 560.2 104.072C560.52 103.432 560.68 102.84 560.68 102.296C560.68 101.624 560.488 100.952 560.104 100.28C559.72 99.608 559.272 99.016 558.76 98.504C558.28 97.96 557.88 97.544 557.56 97.256C557.144 96.936 556.744 96.68 556.36 96.488C556.008 96.264 555.592 96.04 555.112 95.816L554.344 96.44ZM624.424 101.72L629.272 102.248C629.208 102.568 629.048 102.84 628.792 103.064C628.536 103.288 628.136 103.432 627.592 103.496V129.944C627.592 130.776 627.464 131.528 627.208 132.2C626.952 132.872 626.408 133.416 625.576 133.832C624.776 134.28 623.496 134.584 621.736 134.744C621.64 134.232 621.496 133.784 621.304 133.4C621.144 133.016 620.856 132.68 620.44 132.392C619.992 132.104 619.336 131.848 618.472 131.624C617.64 131.432 616.536 131.256 615.16 131.096V130.328C615.16 130.328 615.496 130.344 616.168 130.376C616.84 130.408 617.64 130.472 618.568 130.568C619.528 130.632 620.424 130.696 621.256 130.76C622.12 130.792 622.712 130.808 623.032 130.808C623.576 130.808 623.944 130.728 624.136 130.568C624.328 130.376 624.424 130.072 624.424 129.656V101.72ZM605.896 114.152C607.88 114.984 609.48 115.88 610.696 116.84C611.944 117.8 612.856 118.744 613.432 119.672C614.008 120.6 614.328 121.464 614.392 122.264C614.488 123.064 614.392 123.736 614.104 124.28C613.816 124.792 613.416 125.096 612.904 125.192C612.392 125.256 611.816 125.048 611.176 124.568C611.016 123.448 610.632 122.28 610.024 121.064C609.416 119.816 608.696 118.632 607.864 117.512C607.032 116.36 606.2 115.368 605.368 114.536L605.896 114.152ZM597.64 109.832H633.928L636.232 106.904C636.232 106.904 636.376 107.016 636.664 107.24C636.952 107.464 637.304 107.768 637.72 108.152C638.168 108.504 638.632 108.888 639.112 109.304C639.624 109.688 640.088 110.072 640.504 110.456C640.408 110.968 639.976 111.224 639.208 111.224H598.072L597.64 109.832ZM602.92 97.736H637.432V99.128H602.92V97.736ZM617.368 90.776L622.312 91.256C622.28 91.576 622.12 91.864 621.832 92.12C621.576 92.344 621.144 92.504 620.536 92.6V98.456H617.368V90.776ZM602.632 95.144H603.4C603.976 96.936 604.216 98.536 604.12 99.944C604.056 101.352 603.784 102.52 603.304 103.448C602.856 104.376 602.328 105.08 601.72 105.56C601.336 105.848 600.904 106.056 600.424 106.184C599.944 106.312 599.496 106.328 599.08 106.232C598.696 106.104 598.392 105.848 598.168 105.464C597.944 104.952 597.96 104.456 598.216 103.976C598.472 103.496 598.84 103.112 599.32 102.824C599.96 102.376 600.536 101.768 601.048 101C601.592 100.232 602.008 99.352 602.296 98.36C602.616 97.336 602.728 96.264 602.632 95.144ZM635.704 97.736H635.176L637.288 95.624L640.984 99.224C640.792 99.384 640.552 99.512 640.264 99.608C639.976 99.672 639.592 99.72 639.112 99.752C638.664 100.328 638.104 100.984 637.432 101.72C636.76 102.424 636.056 103.128 635.32 103.832C634.584 104.536 633.896 105.144 633.256 105.656L632.632 105.224C632.984 104.584 633.368 103.816 633.784 102.92C634.2 101.992 634.584 101.064 634.936 100.136C635.288 99.208 635.544 98.408 635.704 97.736ZM659.608 94.808L659.896 93.752C662.136 93.944 663.928 94.312 665.272 94.856C666.616 95.368 667.704 95.912 668.536 96.488C669.592 97.192 670.312 97.912 670.696 98.648C671.08 99.384 671.272 100.168 671.272 101C671.272 101.608 671.144 102.072 670.888 102.392C670.632 102.68 670.248 102.824 669.736 102.824C669.32 102.824 668.968 102.792 668.68 102.728C668.392 102.664 668.056 102.616 667.672 102.584C667.288 102.52 666.744 102.504 666.04 102.536C665.112 102.568 664.168 102.664 663.208 102.824C662.248 102.952 661.368 103.112 660.568 103.304C659.8 103.464 659.208 103.592 658.792 103.688C658.408 103.784 658.136 103.912 657.976 104.072C657.848 104.232 657.784 104.44 657.784 104.696C657.784 104.952 657.88 105.368 658.072 105.944C658.264 106.488 658.36 107 658.36 107.48C658.392 108.056 658.296 108.68 658.072 109.352C657.88 110.024 657.672 110.776 657.448 111.608C657.192 112.696 656.936 113.848 656.68 115.064C656.424 116.28 656.296 117.48 656.296 118.664C656.296 119.208 656.52 119.304 656.968 118.952C658.312 117.832 659.656 116.84 661 115.976C662.376 115.112 663.736 114.392 665.08 113.816C666.456 113.24 667.816 112.808 669.16 112.52C670.504 112.2 671.784 112.04 673 112.04C675.432 112.04 677.416 112.504 678.952 113.432C680.52 114.328 681.688 115.512 682.456 116.984C683.256 118.424 683.656 119.944 683.656 121.544C683.656 123.272 683.192 124.808 682.264 126.152C681.336 127.464 680.072 128.584 678.472 129.512C676.872 130.44 675.032 131.176 672.952 131.72C670.904 132.296 668.744 132.68 666.472 132.872C664.232 133.096 662.024 133.144 659.848 133.016L659.704 131.816C661.4 131.72 663.064 131.544 664.696 131.288C666.36 131.032 667.736 130.76 668.824 130.472C671.768 129.672 674.072 128.728 675.736 127.64C677.432 126.552 678.616 125.416 679.288 124.232C679.96 123.048 680.296 121.864 680.296 120.68C680.296 119.24 679.96 118.008 679.288 116.984C678.616 115.928 677.704 115.128 676.552 114.584C675.432 114.008 674.184 113.72 672.808 113.72C671.464 113.72 670.104 113.96 668.728 114.44C667.384 114.92 666.056 115.56 664.744 116.36C663.464 117.16 662.248 118.072 661.096 119.096C659.976 120.088 658.936 121.128 657.976 122.216C657.752 122.472 657.528 122.792 657.304 123.176C657.08 123.528 656.84 123.848 656.584 124.136C656.36 124.392 656.088 124.52 655.768 124.52C655.224 124.52 654.68 124.184 654.136 123.512C653.848 123.192 653.608 122.824 653.416 122.408C653.256 121.992 653.176 121.624 653.176 121.304C653.176 120.92 653.24 120.456 653.368 119.912C653.496 119.368 653.592 118.808 653.656 118.232C653.784 117.272 653.944 116.216 654.136 115.064C654.328 113.912 654.536 112.776 654.76 111.656C654.984 110.536 655.144 109.592 655.24 108.824C655.4 107.8 655.464 106.952 655.432 106.28C655.4 105.608 655.384 105.016 655.384 104.504C655.384 103.992 655.512 103.544 655.768 103.16C656.056 102.776 656.584 102.488 657.352 102.296C658.184 102.072 659.176 101.832 660.328 101.576C661.512 101.288 662.664 101 663.784 100.712C664.936 100.392 665.816 100.12 666.424 99.896C667.16 99.64 667.176 99.128 666.472 98.36C665.864 97.592 664.936 96.92 663.688 96.344C662.472 95.736 661.112 95.224 659.608 94.808ZM706.408 112.952L706.456 110.264C707.64 109.144 708.904 108.024 710.248 106.904C711.592 105.784 712.968 104.776 714.376 103.88C715.784 102.952 717.192 102.2 718.6 101.624C720.008 101.048 721.368 100.76 722.68 100.76C724.344 100.76 725.656 101.288 726.616 102.344C727.576 103.368 728.056 105 728.056 107.24C728.056 108.2 727.944 109.304 727.72 110.552C727.528 111.8 727.288 113.144 727 114.584C726.744 115.992 726.504 117.4 726.28 118.808C726.088 120.216 725.992 121.528 725.992 122.744C725.992 124.024 726.264 124.952 726.808 125.528C727.384 126.104 728.248 126.392 729.4 126.392C730.968 126.392 732.392 126.104 733.672 125.528C734.952 124.92 736.28 123.976 737.656 122.696L738.52 123.56C737.816 124.552 736.952 125.512 735.928 126.44C734.904 127.336 733.784 128.072 732.568 128.648C731.352 129.224 730.056 129.512 728.68 129.512C726.984 129.512 725.592 129 724.504 127.976C723.448 126.92 722.92 125.336 722.92 123.224C722.92 121.432 723.08 119.64 723.4 117.848C723.752 116.024 724.088 114.216 724.408 112.424C724.76 110.632 724.936 108.872 724.936 107.144C724.936 105.64 724.696 104.504 724.216 103.736C723.736 102.936 722.888 102.536 721.672 102.536C720.232 102.536 718.632 103.016 716.872 103.976C715.144 104.904 713.384 106.168 711.592 107.768C709.8 109.336 708.072 111.064 706.408 112.952ZM706.408 108.872L706.312 113.096C705.704 114.088 704.984 115.192 704.152 116.408C703.352 117.592 702.52 118.808 701.656 120.056C700.792 121.304 699.928 122.52 699.064 123.704C698.232 124.856 697.48 125.912 696.808 126.872C696.52 127.288 696.248 127.64 695.992 127.928C695.736 128.184 695.432 128.312 695.08 128.312C694.728 128.312 694.424 128.152 694.168 127.832C693.944 127.512 693.832 127.112 693.832 126.632C693.832 126.184 693.896 125.8 694.024 125.48C694.152 125.128 694.424 124.712 694.84 124.232C695.416 123.656 696.184 122.792 697.144 121.64C698.104 120.456 699.144 119.128 700.264 117.656C701.416 116.184 702.52 114.696 703.576 113.192C704.664 111.656 705.608 110.216 706.408 108.872ZM699.112 121.352L699.88 120.296C700.36 120.936 700.888 121.672 701.464 122.504C702.072 123.304 702.648 124.072 703.192 124.808C703.736 125.512 704.152 126.04 704.44 126.392C704.888 126.872 705.112 126.76 705.112 126.056C705.112 125.128 705.096 123.928 705.064 122.456C705.032 120.952 705.016 119.32 705.016 117.56C705.016 115.8 705.08 114.072 705.208 112.376C705.336 110.712 705.48 109.096 705.64 107.528C705.832 105.928 706.008 104.456 706.168 103.112C706.36 101.768 706.52 100.568 706.648 99.512C706.808 98.456 706.888 97.608 706.888 96.968C706.888 96.424 706.808 96.056 706.648 95.864C706.52 95.672 706.232 95.496 705.784 95.336C705.496 95.24 705.128 95.128 704.68 95C704.232 94.872 703.752 94.76 703.24 94.664L703.192 93.704C703.608 93.576 704.056 93.464 704.536 93.368C705.048 93.24 705.576 93.176 706.12 93.176C706.6 93.176 707.096 93.288 707.608 93.512C708.152 93.736 708.632 94.04 709.048 94.424C709.496 94.776 709.848 95.16 710.104 95.576C710.392 95.96 710.536 96.328 710.536 96.68C710.536 97.16 710.408 97.608 710.152 98.024C709.928 98.408 709.688 99.08 709.432 100.04C709.272 100.488 709.08 101.112 708.856 101.912C708.664 102.712 708.456 103.64 708.232 104.696C708.008 105.72 707.8 106.824 707.608 108.008C707.448 109.192 707.32 110.376 707.224 111.56C707.096 113.416 707.048 115.304 707.08 117.224C707.144 119.112 707.224 120.84 707.32 122.408C707.448 123.944 707.56 125.224 707.656 126.248C707.72 126.856 707.768 127.432 707.8 127.976C707.864 128.488 707.896 129 707.896 129.512C707.896 130.056 707.816 130.632 707.656 131.24C707.496 131.848 707.272 132.36 706.984 132.776C706.696 133.192 706.328 133.4 705.88 133.4C705.464 133.4 705.128 133.272 704.872 133.016C704.616 132.76 704.424 132.344 704.296 131.768C704.168 131.192 704.056 130.68 703.96 130.232C703.864 129.784 703.704 129.288 703.48 128.744C703.32 128.36 703.08 127.864 702.76 127.256C702.44 126.648 702.072 125.976 701.656 125.24C701.24 124.504 700.808 123.8 700.36 123.128C699.912 122.456 699.496 121.864 699.112 121.352ZM701.272 109.112C700.952 109.336 700.664 109.576 700.408 109.832C700.184 110.088 699.96 110.328 699.736 110.552C699.512 110.744 699.256 110.84 698.968 110.84C698.52 110.84 698.008 110.664 697.432 110.312C696.888 109.96 696.392 109.528 695.944 109.016C695.496 108.472 695.192 107.944 695.032 107.432C694.936 107.08 694.872 106.728 694.84 106.376C694.808 105.992 694.808 105.64 694.84 105.32L695.704 105.032C696.088 105.8 696.456 106.376 696.808 106.76C697.192 107.144 697.592 107.336 698.008 107.336C698.328 107.336 698.888 107.192 699.688 106.904C700.52 106.584 701.416 106.2 702.376 105.752C703.336 105.304 704.216 104.888 705.016 104.504C705.816 104.088 706.376 103.784 706.696 103.592C706.984 103.432 707.224 103.336 707.416 103.304C707.608 103.24 707.848 103.272 708.136 103.4C708.392 103.528 708.68 103.736 709 104.024C709.352 104.28 709.64 104.552 709.864 104.84C710.088 105.096 710.2 105.32 710.2 105.512C710.2 105.8 710.088 106.072 709.864 106.328C709.64 106.552 709.384 106.856 709.096 107.24C708.68 107.688 708.264 108.2 707.848 108.776C707.464 109.352 707.064 109.96 706.648 110.6L706.84 107.816C706.968 107.56 707.112 107.24 707.272 106.856C707.432 106.472 707.56 106.088 707.656 105.704C706.952 106.024 706.2 106.392 705.4 106.808C704.632 107.192 703.896 107.592 703.192 108.008C702.488 108.424 701.848 108.792 701.272 109.112ZM753.544 95.576C753.832 96.248 754.168 96.888 754.552 97.496C754.936 98.104 755.432 98.408 756.04 98.408C756.52 98.408 757.208 98.328 758.104 98.168C759 98.008 759.96 97.816 760.984 97.592C762.04 97.336 763.032 97.08 763.96 96.824C764.888 96.568 765.624 96.376 766.168 96.248C766.552 96.12 766.824 96.008 766.984 95.912C767.176 95.784 767.352 95.672 767.512 95.576C767.672 95.48 767.848 95.432 768.04 95.432C768.424 95.432 768.84 95.544 769.288 95.768C769.736 95.96 770.184 96.232 770.632 96.584C771.08 96.936 771.432 97.304 771.688 97.688C771.976 98.072 772.12 98.424 772.12 98.744C772.12 99.032 771.992 99.272 771.736 99.464C771.512 99.656 771.192 99.864 770.776 100.088C770.36 100.312 769.88 100.68 769.336 101.192C768.728 101.704 767.912 102.424 766.888 103.352C765.896 104.28 764.84 105.288 763.72 106.376C762.632 107.432 761.592 108.456 760.6 109.448C759.608 110.408 758.856 111.192 758.344 111.8C758.152 111.96 758.088 112.104 758.152 112.232C758.248 112.36 758.392 112.376 758.584 112.28C759.704 111.864 760.952 111.48 762.328 111.128C763.736 110.776 765.24 110.6 766.84 110.6C768.92 110.6 770.84 111.032 772.6 111.896C774.36 112.76 775.752 114.008 776.776 115.64C777.832 117.24 778.328 119.144 778.264 121.352C778.232 123.336 777.64 125.16 776.488 126.824C775.336 128.488 773.672 129.816 771.496 130.808C769.352 131.8 766.76 132.296 763.72 132.296C761.928 132.296 760.344 132.072 758.968 131.624C757.624 131.176 756.568 130.536 755.8 129.704C755.064 128.84 754.696 127.832 754.696 126.68C754.696 125.4 755.192 124.328 756.184 123.464C757.208 122.6 758.504 122.168 760.072 122.168C761.288 122.168 762.472 122.456 763.624 123.032C764.776 123.576 765.752 124.408 766.552 125.528C767.352 126.648 767.832 128.088 767.992 129.848L765.16 130.28C764.936 128.2 764.28 126.632 763.192 125.576C762.136 124.488 760.856 123.944 759.352 123.944C758.52 123.944 757.816 124.168 757.24 124.616C756.664 125.064 756.376 125.688 756.376 126.488C756.376 127.32 756.904 128.056 757.96 128.696C759.048 129.336 760.744 129.656 763.048 129.656C765.736 129.656 767.976 129.24 769.768 128.408C771.56 127.576 772.904 126.472 773.8 125.096C774.696 123.72 775.16 122.232 775.192 120.632C775.224 119.192 774.904 117.832 774.232 116.552C773.56 115.272 772.552 114.232 771.208 113.432C769.864 112.6 768.2 112.184 766.216 112.184C763.944 112.184 761.864 112.632 759.976 113.528C758.088 114.392 756.36 115.544 754.792 116.984C753.224 118.392 751.768 119.96 750.424 121.688C750.072 122.136 749.768 122.456 749.512 122.648C749.256 122.808 748.952 122.872 748.6 122.84C748.312 122.84 748.024 122.68 747.736 122.36C747.448 122.008 747.32 121.528 747.352 120.92C747.384 120.472 747.512 120.072 747.736 119.72C747.992 119.336 748.392 118.856 748.936 118.28C750.44 116.712 751.96 115.144 753.496 113.576C755.064 111.976 756.568 110.456 758.008 109.016C759.48 107.544 760.824 106.168 762.04 104.888C763.288 103.576 764.344 102.424 765.208 101.432C766.104 100.408 766.76 99.576 767.176 98.936C767.4 98.584 767.448 98.344 767.32 98.216C767.224 98.088 767.032 98.056 766.744 98.12C766.232 98.216 765.48 98.424 764.488 98.744C763.528 99.064 762.536 99.416 761.512 99.8C760.52 100.152 759.672 100.472 758.968 100.76C758.52 100.952 758.12 101.192 757.768 101.48C757.416 101.736 757.032 101.864 756.616 101.864C756.008 101.864 755.416 101.672 754.84 101.288C754.296 100.904 753.816 100.456 753.4 99.944C753.016 99.4 752.76 98.888 752.632 98.408C752.536 97.992 752.504 97.56 752.536 97.112C752.568 96.632 752.616 96.168 752.68 95.72L753.544 95.576Z" fill="white"/>
</svg>
