<svg width="260" height="260" viewBox="0 0 260 260" fill="none" xmlns="http://www.w3.org/2000/svg">
<path d="M0 16C0 7.16344 7.16344 0 16 0H244C252.837 0 260 7.16344 260 16V244C260 252.837 252.837 260 244 260H16C7.16344 260 0 252.837 0 244V16Z" fill="#007AFF" fill-opacity="0.9"/>
<path d="M56.875 49L59.25 88.625C62.9583 88.625 66.6667 88.3958 70.375 87.9375C74.125 87.4375 77.9583 86.9792 81.875 86.5625L82.125 88.625C82.0833 88.625 81.6875 88.6875 80.9375 88.8125C80.2292 88.8958 79.2708 89.0208 78.0625 89.1875C76.8958 89.3125 75.5625 89.4583 74.0625 89.625C72.5625 89.7917 71.0625 89.9583 69.5625 90.125C68.0625 90.2917 66.625 90.4583 65.25 90.625C63.875 90.7917 62.6875 90.9167 61.6875 91C61.6458 91 61.5417 91 61.375 91C61.2083 91.0417 61.0208 91.0625 60.8125 91.0625C60.6042 91.0625 60.3958 91.0625 60.1875 91.0625C59.9792 91.0625 59.8125 91.0625 59.6875 91.0625C58.7708 91.0625 58.0208 90.5833 57.4375 89.625C56.8542 88.625 56.375 87.2917 56 85.625C55.625 83.9167 55.3542 81.9792 55.1875 79.8125C55.0208 77.6042 54.8958 75.3125 54.8125 72.9375C54.7292 70.5625 54.6875 68.1667 54.6875 65.75C54.7292 63.3333 54.75 61.0625 54.75 58.9375C54.75 56.7708 54.7292 54.8125 54.6875 53.0625C54.6875 51.3125 54.625 49.9583 54.5 49H56.875ZM84.5 47.0625C84.5 46.5625 84.6667 46.1667 85 45.875C85.375 45.5417 85.8125 45.375 86.3125 45.375C86.3542 45.375 86.4583 45.375 86.625 45.375C86.7917 45.375 86.8958 45.375 86.9375 45.375C87.1458 48.875 87.3333 52.2083 87.5 55.375C87.6667 58.5 87.7917 61.5833 87.875 64.625C88 67.6667 88.0833 70.7083 88.125 73.75C88.1667 76.75 88.1875 79.8958 88.1875 83.1875C88.1875 83.6458 88.2083 84.2708 88.25 85.0625C88.3333 85.8542 88.3958 86.625 88.4375 87.375C88.5208 88.125 88.5833 88.8125 88.625 89.4375C88.7083 90.0208 88.75 90.3333 88.75 90.375L86.0625 90.875C85.9792 89.1667 85.8958 87.2083 85.8125 85C85.7292 82.75 85.6458 80.375 85.5625 77.875C85.5208 75.3333 85.4583 72.7292 85.375 70.0625C85.3333 67.3542 85.25 64.6875 85.125 62.0625C85.0417 59.4375 84.9375 56.9167 84.8125 54.5C84.7292 52.0417 84.625 49.8125 84.5 47.8125V47.0625ZM90.75 50.25L92.625 48.375L112.688 83.8125L119.562 46.625H121.562L114.75 89.8125L113.25 91.375L90.75 50.25ZM123.812 57.375C124.479 56.4167 125.354 55.6042 126.438 54.9375C127.562 54.2292 128.792 53.6458 130.125 53.1875C131.5 52.7292 132.958 52.375 134.5 52.125C136.083 51.875 137.625 51.6875 139.125 51.5625C140.625 51.4375 142.083 51.3542 143.5 51.3125C144.917 51.2708 146.167 51.25 147.25 51.25C147.333 51.25 147.521 51.2708 147.812 51.3125C148.104 51.3125 148.417 51.3333 148.75 51.375C149.083 51.375 149.375 51.375 149.625 51.375C149.917 51.375 150.125 51.375 150.25 51.375C150.417 52.2917 150.312 52.9375 149.938 53.3125C149.604 53.6458 149.146 53.8542 148.562 53.9375C148.021 53.9792 147.438 53.9583 146.812 53.875C146.188 53.75 145.729 53.7292 145.438 53.8125C145.021 53.8542 144.354 53.9792 143.438 54.1875C142.562 54.3542 141.583 54.5625 140.5 54.8125C139.417 55.0208 138.25 55.2708 137 55.5625C135.792 55.8125 134.625 56.0625 133.5 56.3125C132.417 56.5208 131.438 56.7292 130.562 56.9375C129.688 57.1458 129.042 57.2917 128.625 57.375C127.958 57.625 127.583 57.9375 127.5 58.3125C127.417 58.6875 127.375 59.125 127.375 59.625C127.375 60.5 127.417 61.4792 127.5 62.5625C127.625 63.6458 127.75 64.7292 127.875 65.8125C128.042 66.8542 128.188 67.8125 128.312 68.6875C128.479 69.5625 128.583 70.2083 128.625 70.625C128.792 70.6667 129.104 70.6875 129.562 70.6875C130.021 70.6875 130.333 70.6875 130.5 70.6875C131.458 70.6875 132.396 70.6042 133.312 70.4375C134.229 70.2708 135.146 70.0833 136.062 69.875C136.979 69.6667 137.917 69.5 138.875 69.375C139.833 69.2083 140.812 69.125 141.812 69.125V71.4375C141.396 71.4375 140.812 71.4792 140.062 71.5625C139.312 71.6042 138.479 71.7083 137.562 71.875C136.688 72.0417 135.792 72.2292 134.875 72.4375C133.958 72.6042 133.125 72.7917 132.375 73C131.625 73.2083 131 73.4167 130.5 73.625C130.042 73.8333 129.812 74.0417 129.812 74.25V87.25C131.771 87.25 133.708 87.1875 135.625 87.0625C137.583 86.9375 139.542 86.8125 141.5 86.6875C143.458 86.5208 145.417 86.375 147.375 86.25C149.333 86.125 151.292 86.0625 153.25 86.0625C153.25 86.5625 153.083 86.9792 152.75 87.3125C152.417 87.6042 152.021 87.8542 151.562 88.0625C151.146 88.2292 150.688 88.3542 150.188 88.4375C149.688 88.5208 149.312 88.5833 149.062 88.625C148.896 88.6667 148.375 88.7292 147.5 88.8125C146.625 88.8958 145.542 89.0208 144.25 89.1875C142.958 89.3542 141.521 89.5208 139.938 89.6875C138.354 89.8542 136.792 90.0208 135.25 90.1875C133.708 90.3542 132.25 90.5208 130.875 90.6875C129.5 90.8125 128.354 90.9167 127.438 91C127.312 91.0417 127.125 91.0625 126.875 91.0625C126.875 85.4792 126.688 79.8542 126.312 74.1875C125.979 68.4792 125.146 62.875 123.812 57.375Z" fill="white"/>
<path d="M164.562 181.125C164.396 180.375 164.188 179.396 163.938 178.188C163.688 176.938 163.354 175.604 162.938 174.188C162.562 172.729 162.083 171.271 161.5 169.812C160.958 168.354 160.292 167.042 159.5 165.875C158.708 164.667 157.792 163.688 156.75 162.938C155.75 162.188 154.562 161.812 153.188 161.812C152.646 161.812 151.938 161.854 151.062 161.938C150.188 162.021 149.333 162.167 148.5 162.375C147.667 162.542 146.938 162.792 146.312 163.125C145.688 163.458 145.375 163.854 145.375 164.312V180.188C145.208 180.188 144.958 180.146 144.625 180.062C144.292 179.979 143.958 179.875 143.625 179.75C143.292 179.583 143 179.417 142.75 179.25C142.5 179.083 142.375 178.896 142.375 178.688V147.5C141.875 147.583 141.438 147.812 141.062 148.188C140.688 148.521 140.375 148.938 140.125 149.438C139.917 149.938 139.75 150.438 139.625 150.938C139.5 151.438 139.417 151.896 139.375 152.312C139.208 152.312 138.979 152.229 138.688 152.062C138.396 151.854 138.125 151.625 137.875 151.375C137.625 151.125 137.417 150.875 137.25 150.625C137.042 150.333 136.938 150.083 136.938 149.875C136.938 148.833 137.25 147.833 137.875 146.875C138.5 145.875 139.312 144.979 140.312 144.188C141.312 143.354 142.417 142.625 143.625 142C144.875 141.333 146.125 140.771 147.375 140.312C148.625 139.854 149.812 139.5 150.938 139.25C152.062 139 153.021 138.875 153.812 138.875C154.979 138.875 156.083 138.917 157.125 139C158.167 139.083 159.062 139.333 159.812 139.75C160.604 140.125 161.229 140.729 161.688 141.562C162.146 142.396 162.375 143.521 162.375 144.938C162.375 146.229 162.146 147.5 161.688 148.75C161.229 149.958 160.646 151.125 159.938 152.25C159.229 153.375 158.438 154.458 157.562 155.5C156.688 156.5 155.812 157.438 154.938 158.312C156.896 159.521 158.479 160.75 159.688 162C160.896 163.208 161.875 164.438 162.625 165.688C163.375 166.896 163.938 168.125 164.312 169.375C164.729 170.583 165.042 171.833 165.25 173.125C165.5 174.417 165.729 175.729 165.938 177.062C166.188 178.396 166.521 179.75 166.938 181.125H164.562ZM154.062 141.375C153.771 141.375 153.354 141.396 152.812 141.438C152.312 141.438 151.729 141.479 151.062 141.562C150.396 141.646 149.729 141.771 149.062 141.938C148.438 142.104 147.833 142.333 147.25 142.625C146.708 142.917 146.25 143.271 145.875 143.688C145.542 144.062 145.375 144.542 145.375 145.125V161C146.375 161 147.417 160.75 148.5 160.25C149.583 159.75 150.646 159.083 151.688 158.25C152.771 157.375 153.812 156.417 154.812 155.375C155.812 154.292 156.688 153.188 157.438 152.062C158.188 150.938 158.792 149.812 159.25 148.688C159.708 147.562 159.938 146.562 159.938 145.688C159.938 144.729 159.771 143.979 159.438 143.438C159.146 142.854 158.729 142.417 158.188 142.125C157.646 141.792 157.021 141.583 156.312 141.5C155.604 141.417 154.854 141.375 154.062 141.375ZM171.25 137.062C171.25 136.562 171.417 136.167 171.75 135.875C172.125 135.542 172.562 135.375 173.062 135.375C173.104 135.375 173.208 135.375 173.375 135.375C173.542 135.375 173.646 135.375 173.688 135.375C173.896 138.875 174.083 142.208 174.25 145.375C174.417 148.5 174.542 151.583 174.625 154.625C174.75 157.667 174.833 160.708 174.875 163.75C174.917 166.75 174.938 169.896 174.938 173.188C174.938 173.646 174.958 174.271 175 175.062C175.083 175.854 175.146 176.625 175.188 177.375C175.271 178.125 175.333 178.812 175.375 179.438C175.458 180.021 175.5 180.333 175.5 180.375L172.812 180.875C172.729 179.167 172.646 177.208 172.562 175C172.479 172.75 172.396 170.375 172.312 167.875C172.271 165.333 172.208 162.729 172.125 160.062C172.083 157.354 172 154.688 171.875 152.062C171.792 149.438 171.688 146.917 171.562 144.5C171.479 142.042 171.375 139.812 171.25 137.812V137.062ZM179.688 149.812C179.521 149.771 179.312 149.646 179.062 149.438C178.854 149.229 178.646 149 178.438 148.75C178.271 148.5 178.125 148.25 178 148C177.875 147.75 177.812 147.542 177.812 147.375C177.938 146 178.438 144.979 179.312 144.312C180.229 143.604 181.271 143.125 182.438 142.875C183.604 142.625 184.812 142.5 186.062 142.5C187.312 142.5 188.375 142.5 189.25 142.5C190.708 142.5 192.042 142.583 193.25 142.75C194.5 142.875 195.583 143.208 196.5 143.75C197.417 144.25 198.146 144.979 198.688 145.938C199.229 146.896 199.5 148.208 199.5 149.875C199.5 150.708 199.458 151.458 199.375 152.125C199.333 152.75 199.229 153.375 199.062 154C198.896 154.583 198.646 155.229 198.312 155.938C197.979 156.604 197.542 157.375 197 158.25C198.708 158.792 200.125 159.312 201.25 159.812C202.375 160.271 203.25 160.854 203.875 161.562C204.5 162.229 204.917 163.062 205.125 164.062C205.375 165.021 205.5 166.271 205.5 167.812C205.5 169.646 205.104 171.375 204.312 173C203.521 174.625 202.458 176.042 201.125 177.25C199.833 178.458 198.312 179.417 196.562 180.125C194.812 180.792 192.958 181.125 191 181.125C190.583 181.125 190.021 181.062 189.312 180.938C188.604 180.771 187.833 180.583 187 180.375C186.167 180.125 185.312 179.854 184.438 179.562C183.562 179.229 182.771 178.875 182.062 178.5C181.354 178.125 180.771 177.75 180.312 177.375C179.896 177 179.688 176.625 179.688 176.25V149.812ZM183.812 164.25C183.896 165.25 183.854 166.292 183.688 167.375C183.521 168.458 183.375 169.5 183.25 170.5C183.125 171.5 183.083 172.458 183.125 173.375C183.167 174.25 183.417 175.042 183.875 175.75C184.333 176.458 185.083 177.083 186.125 177.625C187.167 178.125 188.604 178.479 190.438 178.688C191.979 178.688 193.5 178.417 195 177.875C196.542 177.292 197.896 176.521 199.062 175.562C200.271 174.562 201.25 173.396 202 172.062C202.75 170.688 203.125 169.188 203.125 167.562C203.125 166.479 202.938 165.562 202.562 164.812C202.188 164.062 201.688 163.458 201.062 163C200.438 162.5 199.688 162.146 198.812 161.938C197.979 161.729 197.083 161.625 196.125 161.625C194.917 161.625 193.833 161.667 192.875 161.75C191.917 161.792 190.958 161.917 190 162.125C189.083 162.292 188.125 162.562 187.125 162.938C186.167 163.271 185.062 163.708 183.812 164.25ZM182.562 157.75C182.562 158.083 182.583 158.438 182.625 158.812C182.667 159.146 182.729 159.458 182.812 159.75C182.938 160 183.125 160.229 183.375 160.438C183.625 160.604 183.958 160.688 184.375 160.688C185.792 160.688 187.25 160.417 188.75 159.875C190.25 159.333 191.604 158.583 192.812 157.625C194.062 156.667 195.083 155.542 195.875 154.25C196.708 152.917 197.125 151.438 197.125 149.812C197.125 149.646 197.083 149.417 197 149.125C196.917 148.792 196.729 148.458 196.438 148.125C196.146 147.792 195.708 147.479 195.125 147.188C194.542 146.854 193.75 146.583 192.75 146.375C191.792 146.167 190.583 146.042 189.125 146C187.667 145.958 185.896 146.042 183.812 146.25C183.729 146.333 183.625 146.604 183.5 147.062C183.417 147.521 183.312 148.104 183.188 148.812C183.104 149.479 183.021 150.229 182.938 151.062C182.896 151.854 182.833 152.667 182.75 153.5C182.708 154.292 182.667 155.062 182.625 155.812C182.583 156.562 182.562 157.208 182.562 157.75Z" fill="white"/>
<path d="M91.768 122.952L92.248 122.504C92.888 122.973 93.56 123.368 94.264 123.688C94.9893 123.987 95.8107 124.136 96.728 124.136C97.8587 124.136 98.9147 124.061 99.896 123.912C100.877 123.741 101.731 123.549 102.456 123.336C103.203 123.101 103.789 122.899 104.216 122.728C104.899 122.451 105.379 122.237 105.656 122.088C105.933 121.939 106.136 121.864 106.264 121.864C106.605 121.885 106.968 121.981 107.352 122.152C107.736 122.323 107.928 122.568 107.928 122.888C107.928 123.187 107.811 123.421 107.576 123.592C107.363 123.763 106.989 123.955 106.456 124.168C106.051 124.296 105.485 124.467 104.76 124.68C104.035 124.872 103.224 125.064 102.328 125.256C101.453 125.427 100.536 125.576 99.576 125.704C98.616 125.811 97.688 125.864 96.792 125.864C96.1307 125.864 95.5333 125.8 95 125.672C94.4667 125.523 93.944 125.235 93.432 124.808C92.92 124.381 92.3653 123.763 91.768 122.952ZM97.592 118.184L97.528 117.512C97.848 117.363 98.2213 117.224 98.648 117.096C99.096 116.968 99.5013 116.904 99.864 116.904C100.312 116.904 100.771 116.989 101.24 117.16C101.709 117.331 102.104 117.544 102.424 117.8C102.744 118.035 102.904 118.28 102.904 118.536C102.904 118.728 102.872 118.909 102.808 119.08C102.765 119.251 102.701 119.464 102.616 119.72C102.552 119.955 102.477 120.307 102.392 120.776C102.328 121.139 102.275 121.555 102.232 122.024C102.189 122.493 102.157 122.995 102.136 123.528C102.115 124.061 102.104 124.627 102.104 125.224C102.104 126.867 102.157 128.467 102.264 130.024C102.371 131.56 102.477 132.957 102.584 134.216C102.691 135.475 102.744 136.477 102.744 137.224C102.744 138.013 102.563 138.728 102.2 139.368C101.837 140.008 101.261 140.509 100.472 140.872C99.6827 141.213 98.6267 141.384 97.304 141.384C96.344 141.384 95.48 141.245 94.712 140.968C93.944 140.691 93.3253 140.275 92.856 139.72C92.408 139.165 92.184 138.515 92.184 137.768C92.184 136.851 92.4613 136.104 93.016 135.528C93.5707 134.931 94.328 134.493 95.288 134.216C96.248 133.939 97.304 133.8 98.456 133.8C100.12 133.8 101.56 133.992 102.776 134.376C104.013 134.76 105.048 135.219 105.88 135.752C106.733 136.285 107.395 136.776 107.864 137.224C108.184 137.523 108.429 137.821 108.6 138.12C108.792 138.419 108.888 138.717 108.888 139.016C108.888 139.315 108.813 139.56 108.664 139.752C108.536 139.944 108.333 140.04 108.056 140.04C107.821 140.04 107.597 139.955 107.384 139.784C107.171 139.613 106.904 139.379 106.584 139.08C105.837 138.333 105.027 137.672 104.152 137.096C103.299 136.52 102.328 136.061 101.24 135.72C100.173 135.379 98.936 135.208 97.528 135.208C96.8667 135.208 96.216 135.304 95.576 135.496C94.936 135.667 94.4027 135.933 93.976 136.296C93.5707 136.637 93.368 137.064 93.368 137.576C93.368 138.301 93.688 138.824 94.328 139.144C94.968 139.464 95.768 139.624 96.728 139.624C97.9013 139.624 98.776 139.485 99.352 139.208C99.928 138.909 100.312 138.483 100.504 137.928C100.717 137.352 100.824 136.627 100.824 135.752C100.824 135.283 100.803 134.643 100.76 133.832C100.739 133.021 100.696 132.125 100.632 131.144C100.589 130.141 100.547 129.128 100.504 128.104C100.461 127.08 100.429 126.109 100.408 125.192C100.408 124.637 100.408 123.997 100.408 123.272C100.408 122.525 100.408 121.811 100.408 121.128C100.408 120.424 100.408 119.891 100.408 119.528C100.408 119.272 100.387 119.08 100.344 118.952C100.323 118.824 100.269 118.728 100.184 118.664C100.099 118.579 99.9813 118.515 99.832 118.472C99.5333 118.387 99.192 118.323 98.808 118.28C98.424 118.216 98.0187 118.184 97.592 118.184ZM83.224 117.352L83.736 116.936C84.0987 117.085 84.3867 117.224 84.6 117.352C84.8133 117.459 85.0693 117.64 85.368 117.896C85.5813 118.045 85.8587 118.323 86.2 118.728C86.5413 119.112 86.84 119.539 87.096 120.008C87.3733 120.477 87.512 120.936 87.512 121.384C87.512 121.725 87.4053 122.109 87.192 122.536C86.9787 122.941 86.6693 123.624 86.264 124.584C86.0293 125.181 85.7413 125.928 85.4 126.824C85.08 127.72 84.792 128.701 84.536 129.768C84.3013 130.835 84.184 131.923 84.184 133.032C84.184 133.885 84.2373 134.557 84.344 135.048C84.4507 135.539 84.6 135.944 84.792 136.264C84.8987 136.456 85.016 136.563 85.144 136.584C85.272 136.605 85.4 136.499 85.528 136.264C85.6987 136.008 85.9227 135.581 86.2 134.984C86.4773 134.387 86.7653 133.725 87.064 133C87.384 132.275 87.6827 131.581 87.96 130.92C88.2587 130.237 88.504 129.693 88.696 129.288L89.464 129.672C89.3147 130.077 89.1227 130.6 88.888 131.24C88.6533 131.859 88.4187 132.499 88.184 133.16C87.9493 133.8 87.7253 134.397 87.512 134.952C87.32 135.507 87.1707 135.933 87.064 136.232C86.9147 136.744 86.7867 137.181 86.68 137.544C86.5947 137.885 86.552 138.184 86.552 138.44C86.552 138.931 86.6267 139.411 86.776 139.88C86.9253 140.349 87 140.787 87 141.192C87 141.853 86.7013 142.184 86.104 142.184C85.8267 142.184 85.56 142.067 85.304 141.832C85.048 141.597 84.8027 141.309 84.568 140.968C84.2907 140.541 84.0027 139.944 83.704 139.176C83.4267 138.408 83.192 137.533 83 136.552C82.808 135.571 82.712 134.547 82.712 133.48C82.712 132.2 82.7973 131.005 82.968 129.896C83.16 128.787 83.3733 127.784 83.608 126.888C83.864 125.971 84.0773 125.192 84.248 124.552C84.4613 123.784 84.6427 123.101 84.792 122.504C84.9627 121.907 85.0587 121.352 85.08 120.84C85.1013 120.264 84.9307 119.709 84.568 119.176C84.2267 118.621 83.7787 118.013 83.224 117.352Z" fill="white"/>
<path d="M64.592 206.088C65.4667 205.597 66.3413 205.213 67.216 204.936C68.0907 204.659 68.9547 204.456 69.808 204.328C70.6827 204.179 71.4933 204.104 72.24 204.104C73.3493 204.104 74.2347 204.157 74.896 204.264C75.5787 204.371 76.176 204.541 76.688 204.776C77.0293 204.904 77.2747 205.075 77.424 205.288C77.5733 205.501 77.648 205.704 77.648 205.896C77.648 206.088 77.584 206.259 77.456 206.408C77.328 206.536 77.104 206.632 76.784 206.696C76.4 206.717 75.9947 206.771 75.568 206.856C75.1627 206.941 74.6933 207.091 74.16 207.304C73.712 207.517 73.168 207.795 72.528 208.136C71.9093 208.456 71.28 208.808 70.64 209.192C70 209.555 69.424 209.896 68.912 210.216L68.368 209.64C68.8587 209.277 69.392 208.893 69.968 208.488C70.5653 208.061 71.12 207.656 71.632 207.272C72.144 206.867 72.5173 206.568 72.752 206.376C72.88 206.248 72.9333 206.141 72.912 206.056C72.912 205.971 72.7733 205.907 72.496 205.864C72.2187 205.821 71.7173 205.8 70.992 205.8C70.3307 205.8 69.488 205.875 68.464 206.024C67.44 206.152 66.256 206.429 64.912 206.856L64.592 206.088ZM64.24 216.104C64.3467 216.488 64.4747 216.947 64.624 217.48C64.7733 218.013 64.9547 218.483 65.168 218.888C65.5307 219.507 65.9787 220.04 66.512 220.488C67.0667 220.936 67.7707 221.288 68.624 221.544C69.4987 221.779 70.5867 221.896 71.888 221.896C73.04 221.896 73.968 221.853 74.672 221.768C75.376 221.661 75.9307 221.565 76.336 221.48C76.7413 221.373 77.072 221.32 77.328 221.32C77.6267 221.32 77.8933 221.363 78.128 221.448C78.384 221.512 78.5973 221.619 78.768 221.768C78.9387 221.896 79.024 222.088 79.024 222.344C79.024 222.771 78.7253 223.112 78.128 223.368C77.5307 223.603 76.752 223.773 75.792 223.88C74.832 223.965 73.7653 224.008 72.592 224.008C70.928 224.008 69.5093 223.827 68.336 223.464C67.1627 223.101 66.2133 222.557 65.488 221.832C64.7627 221.085 64.24 220.168 63.92 219.08C63.792 218.589 63.696 218.099 63.632 217.608C63.568 217.117 63.5253 216.659 63.504 216.232L64.24 216.104ZM54.896 201.96C55.4293 202.536 55.8667 203.101 56.208 203.656C56.5493 204.189 56.7093 204.744 56.688 205.32C56.6667 205.853 56.5707 206.419 56.4 207.016C56.2507 207.592 56.08 208.264 55.888 209.032C55.7173 209.672 55.504 210.408 55.248 211.24C55.0133 212.072 54.8 213 54.608 214.024C54.4373 215.048 54.352 216.2 54.352 217.48C54.352 218.461 54.448 219.421 54.64 220.36C54.832 221.277 55.0667 222.109 55.344 222.856C55.6213 223.603 55.9093 224.2 56.208 224.648C56.4 224.989 56.624 225.267 56.88 225.48C57.1573 225.715 57.4347 225.832 57.712 225.832C58.3307 225.832 58.64 225.512 58.64 224.872C58.64 224.488 58.5333 224.051 58.32 223.56C58.1067 223.069 58 222.6 58 222.152C58 221.853 58.0533 221.523 58.16 221.16C58.2667 220.776 58.3947 220.339 58.544 219.848C58.6293 219.549 58.768 219.133 58.96 218.6C59.1733 218.045 59.408 217.448 59.664 216.808C59.9413 216.147 60.1973 215.507 60.432 214.888C60.6667 214.269 60.8693 213.757 61.04 213.352L60.272 212.968C60.1013 213.373 59.8667 213.896 59.568 214.536C59.2907 215.176 58.992 215.848 58.672 216.552C58.352 217.235 58.0427 217.864 57.744 218.44C57.4667 218.995 57.2427 219.421 57.072 219.72C56.816 220.125 56.5813 220.115 56.368 219.688C56.24 219.475 56.1227 219.176 56.016 218.792C55.9093 218.408 55.856 217.789 55.856 216.936C55.856 215.891 55.9733 214.877 56.208 213.896C56.4427 212.915 56.7093 212.019 57.008 211.208C57.328 210.397 57.6267 209.693 57.904 209.096C58.288 208.136 58.5867 207.453 58.8 207.048C59.0133 206.621 59.12 206.227 59.12 205.864C59.12 205.416 58.992 204.968 58.736 204.52C58.48 204.072 58.1813 203.677 57.84 203.336C57.52 202.973 57.2533 202.696 57.04 202.504C56.7627 202.291 56.496 202.12 56.24 201.992C56.0053 201.843 55.728 201.693 55.408 201.544L54.896 201.96ZM101.616 205.48L104.848 205.832C104.805 206.045 104.699 206.227 104.528 206.376C104.357 206.525 104.091 206.621 103.728 206.664V224.296C103.728 224.851 103.643 225.352 103.472 225.8C103.301 226.248 102.939 226.611 102.384 226.888C101.851 227.187 100.997 227.389 99.824 227.496C99.76 227.155 99.664 226.856 99.536 226.6C99.4293 226.344 99.2373 226.12 98.96 225.928C98.6613 225.736 98.224 225.565 97.648 225.416C97.0933 225.288 96.3573 225.171 95.44 225.064V224.552C95.44 224.552 95.664 224.563 96.112 224.584C96.56 224.605 97.0933 224.648 97.712 224.712C98.352 224.755 98.9493 224.797 99.504 224.84C100.08 224.861 100.475 224.872 100.688 224.872C101.051 224.872 101.296 224.819 101.424 224.712C101.552 224.584 101.616 224.381 101.616 224.104V205.48ZM89.264 213.768C90.5867 214.323 91.6533 214.92 92.464 215.56C93.296 216.2 93.904 216.829 94.288 217.448C94.672 218.067 94.8853 218.643 94.928 219.176C94.992 219.709 94.928 220.157 94.736 220.52C94.544 220.861 94.2773 221.064 93.936 221.128C93.5947 221.171 93.2107 221.032 92.784 220.712C92.6773 219.965 92.4213 219.187 92.016 218.376C91.6107 217.544 91.1307 216.755 90.576 216.008C90.0213 215.24 89.4667 214.579 88.912 214.024L89.264 213.768ZM83.76 210.888H107.952L109.488 208.936C109.488 208.936 109.584 209.011 109.776 209.16C109.968 209.309 110.203 209.512 110.48 209.768C110.779 210.003 111.088 210.259 111.408 210.536C111.749 210.792 112.059 211.048 112.336 211.304C112.272 211.645 111.984 211.816 111.472 211.816H84.048L83.76 210.888ZM87.28 202.824H110.288V203.752H87.28V202.824ZM96.912 198.184L100.208 198.504C100.187 198.717 100.08 198.909 99.888 199.08C99.7173 199.229 99.4293 199.336 99.024 199.4V203.304H96.912V198.184ZM87.088 201.096H87.6C87.984 202.291 88.144 203.357 88.08 204.296C88.0373 205.235 87.856 206.013 87.536 206.632C87.2373 207.251 86.8853 207.72 86.48 208.04C86.224 208.232 85.936 208.371 85.616 208.456C85.296 208.541 84.9973 208.552 84.72 208.488C84.464 208.403 84.2613 208.232 84.112 207.976C83.9627 207.635 83.9733 207.304 84.144 206.984C84.3147 206.664 84.56 206.408 84.88 206.216C85.3067 205.917 85.6907 205.512 86.032 205C86.3947 204.488 86.672 203.901 86.864 203.24C87.0773 202.557 87.152 201.843 87.088 201.096ZM109.136 202.824H108.784L110.192 201.416L112.656 203.816C112.528 203.923 112.368 204.008 112.176 204.072C111.984 204.115 111.728 204.147 111.408 204.168C111.109 204.552 110.736 204.989 110.288 205.48C109.84 205.949 109.371 206.419 108.88 206.888C108.389 207.357 107.931 207.763 107.504 208.104L107.088 207.816C107.323 207.389 107.579 206.877 107.856 206.28C108.133 205.661 108.389 205.043 108.624 204.424C108.859 203.805 109.029 203.272 109.136 202.824ZM125.072 200.872L125.264 200.168C126.757 200.296 127.952 200.541 128.848 200.904C129.744 201.245 130.469 201.608 131.024 201.992C131.728 202.461 132.208 202.941 132.464 203.432C132.72 203.923 132.848 204.445 132.848 205C132.848 205.405 132.763 205.715 132.592 205.928C132.421 206.12 132.165 206.216 131.824 206.216C131.547 206.216 131.312 206.195 131.12 206.152C130.928 206.109 130.704 206.077 130.448 206.056C130.192 206.013 129.829 206.003 129.36 206.024C128.741 206.045 128.112 206.109 127.472 206.216C126.832 206.301 126.245 206.408 125.712 206.536C125.2 206.643 124.805 206.728 124.528 206.792C124.272 206.856 124.091 206.941 123.984 207.048C123.899 207.155 123.856 207.293 123.856 207.464C123.856 207.635 123.92 207.912 124.048 208.296C124.176 208.659 124.24 209 124.24 209.32C124.261 209.704 124.197 210.12 124.048 210.568C123.92 211.016 123.781 211.517 123.632 212.072C123.461 212.797 123.291 213.565 123.12 214.376C122.949 215.187 122.864 215.987 122.864 216.776C122.864 217.139 123.013 217.203 123.312 216.968C124.208 216.221 125.104 215.56 126 214.984C126.917 214.408 127.824 213.928 128.72 213.544C129.637 213.16 130.544 212.872 131.44 212.68C132.336 212.467 133.189 212.36 134 212.36C135.621 212.36 136.944 212.669 137.968 213.288C139.013 213.885 139.792 214.675 140.304 215.656C140.837 216.616 141.104 217.629 141.104 218.696C141.104 219.848 140.795 220.872 140.176 221.768C139.557 222.643 138.715 223.389 137.648 224.008C136.581 224.627 135.355 225.117 133.968 225.48C132.603 225.864 131.163 226.12 129.648 226.248C128.155 226.397 126.683 226.429 125.232 226.344L125.136 225.544C126.267 225.48 127.376 225.363 128.464 225.192C129.573 225.021 130.491 224.84 131.216 224.648C133.179 224.115 134.715 223.485 135.824 222.76C136.955 222.035 137.744 221.277 138.192 220.488C138.64 219.699 138.864 218.909 138.864 218.12C138.864 217.16 138.64 216.339 138.192 215.656C137.744 214.952 137.136 214.419 136.368 214.056C135.621 213.672 134.789 213.48 133.872 213.48C132.976 213.48 132.069 213.64 131.152 213.96C130.256 214.28 129.371 214.707 128.496 215.24C127.643 215.773 126.832 216.381 126.064 217.064C125.317 217.725 124.624 218.419 123.984 219.144C123.835 219.315 123.685 219.528 123.536 219.784C123.387 220.019 123.227 220.232 123.056 220.424C122.907 220.595 122.725 220.68 122.512 220.68C122.149 220.68 121.787 220.456 121.424 220.008C121.232 219.795 121.072 219.549 120.944 219.272C120.837 218.995 120.784 218.749 120.784 218.536C120.784 218.28 120.827 217.971 120.912 217.608C120.997 217.245 121.061 216.872 121.104 216.488C121.189 215.848 121.296 215.144 121.424 214.376C121.552 213.608 121.691 212.851 121.84 212.104C121.989 211.357 122.096 210.728 122.16 210.216C122.267 209.533 122.309 208.968 122.288 208.52C122.267 208.072 122.256 207.677 122.256 207.336C122.256 206.995 122.341 206.696 122.512 206.44C122.704 206.184 123.056 205.992 123.568 205.864C124.123 205.715 124.784 205.555 125.552 205.384C126.341 205.192 127.109 205 127.856 204.808C128.624 204.595 129.211 204.413 129.616 204.264C130.107 204.093 130.117 203.752 129.648 203.24C129.243 202.728 128.624 202.28 127.792 201.896C126.981 201.491 126.075 201.149 125.072 200.872ZM156.272 212.968L156.304 211.176C157.093 210.429 157.936 209.683 158.832 208.936C159.728 208.189 160.645 207.517 161.584 206.92C162.523 206.301 163.461 205.8 164.4 205.416C165.339 205.032 166.245 204.84 167.12 204.84C168.229 204.84 169.104 205.192 169.744 205.896C170.384 206.579 170.704 207.667 170.704 209.16C170.704 209.8 170.629 210.536 170.48 211.368C170.352 212.2 170.192 213.096 170 214.056C169.829 214.995 169.669 215.933 169.52 216.872C169.392 217.811 169.328 218.685 169.328 219.496C169.328 220.349 169.509 220.968 169.872 221.352C170.256 221.736 170.832 221.928 171.6 221.928C172.645 221.928 173.595 221.736 174.448 221.352C175.301 220.947 176.187 220.317 177.104 219.464L177.68 220.04C177.211 220.701 176.635 221.341 175.952 221.96C175.269 222.557 174.523 223.048 173.712 223.432C172.901 223.816 172.037 224.008 171.12 224.008C169.989 224.008 169.061 223.667 168.336 222.984C167.632 222.28 167.28 221.224 167.28 219.816C167.28 218.621 167.387 217.427 167.6 216.232C167.835 215.016 168.059 213.811 168.272 212.616C168.507 211.421 168.624 210.248 168.624 209.096C168.624 208.093 168.464 207.336 168.144 206.824C167.824 206.291 167.259 206.024 166.448 206.024C165.488 206.024 164.421 206.344 163.248 206.984C162.096 207.603 160.923 208.445 159.728 209.512C158.533 210.557 157.381 211.709 156.272 212.968ZM156.272 210.248L156.208 213.064C155.803 213.725 155.323 214.461 154.768 215.272C154.235 216.061 153.68 216.872 153.104 217.704C152.528 218.536 151.952 219.347 151.376 220.136C150.821 220.904 150.32 221.608 149.872 222.248C149.68 222.525 149.499 222.76 149.328 222.952C149.157 223.123 148.955 223.208 148.72 223.208C148.485 223.208 148.283 223.101 148.112 222.888C147.963 222.675 147.888 222.408 147.888 222.088C147.888 221.789 147.931 221.533 148.016 221.32C148.101 221.085 148.283 220.808 148.56 220.488C148.944 220.104 149.456 219.528 150.096 218.76C150.736 217.971 151.429 217.085 152.176 216.104C152.944 215.123 153.68 214.131 154.384 213.128C155.109 212.104 155.739 211.144 156.272 210.248ZM151.408 218.568L151.92 217.864C152.24 218.291 152.592 218.781 152.976 219.336C153.381 219.869 153.765 220.381 154.128 220.872C154.491 221.341 154.768 221.693 154.96 221.928C155.259 222.248 155.408 222.173 155.408 221.704C155.408 221.085 155.397 220.285 155.376 219.304C155.355 218.301 155.344 217.213 155.344 216.04C155.344 214.867 155.387 213.715 155.472 212.584C155.557 211.475 155.653 210.397 155.76 209.352C155.888 208.285 156.005 207.304 156.112 206.408C156.24 205.512 156.347 204.712 156.432 204.008C156.539 203.304 156.592 202.739 156.592 202.312C156.592 201.949 156.539 201.704 156.432 201.576C156.347 201.448 156.155 201.331 155.856 201.224C155.664 201.16 155.419 201.085 155.12 201C154.821 200.915 154.501 200.84 154.16 200.776L154.128 200.136C154.405 200.051 154.704 199.976 155.024 199.912C155.365 199.827 155.717 199.784 156.08 199.784C156.4 199.784 156.731 199.859 157.072 200.008C157.435 200.157 157.755 200.36 158.032 200.616C158.331 200.851 158.565 201.107 158.736 201.384C158.928 201.64 159.024 201.885 159.024 202.12C159.024 202.44 158.939 202.739 158.768 203.016C158.619 203.272 158.459 203.72 158.288 204.36C158.181 204.659 158.053 205.075 157.904 205.608C157.776 206.141 157.637 206.76 157.488 207.464C157.339 208.147 157.2 208.883 157.072 209.672C156.965 210.461 156.88 211.251 156.816 212.04C156.731 213.277 156.699 214.536 156.72 215.816C156.763 217.075 156.816 218.227 156.88 219.272C156.965 220.296 157.04 221.149 157.104 221.832C157.147 222.237 157.179 222.621 157.2 222.984C157.243 223.325 157.264 223.667 157.264 224.008C157.264 224.371 157.211 224.755 157.104 225.16C156.997 225.565 156.848 225.907 156.656 226.184C156.464 226.461 156.219 226.6 155.92 226.6C155.643 226.6 155.419 226.515 155.248 226.344C155.077 226.173 154.949 225.896 154.864 225.512C154.779 225.128 154.704 224.787 154.64 224.488C154.576 224.189 154.469 223.859 154.32 223.496C154.213 223.24 154.053 222.909 153.84 222.504C153.627 222.099 153.381 221.651 153.104 221.16C152.827 220.669 152.539 220.2 152.24 219.752C151.941 219.304 151.664 218.909 151.408 218.568ZM152.848 210.408C152.635 210.557 152.443 210.717 152.272 210.888C152.123 211.059 151.973 211.219 151.824 211.368C151.675 211.496 151.504 211.56 151.312 211.56C151.013 211.56 150.672 211.443 150.288 211.208C149.925 210.973 149.595 210.685 149.296 210.344C148.997 209.981 148.795 209.629 148.688 209.288C148.624 209.053 148.581 208.819 148.56 208.584C148.539 208.328 148.539 208.093 148.56 207.88L149.136 207.688C149.392 208.2 149.637 208.584 149.872 208.84C150.128 209.096 150.395 209.224 150.672 209.224C150.885 209.224 151.259 209.128 151.792 208.936C152.347 208.723 152.944 208.467 153.584 208.168C154.224 207.869 154.811 207.592 155.344 207.336C155.877 207.059 156.251 206.856 156.464 206.728C156.656 206.621 156.816 206.557 156.944 206.536C157.072 206.493 157.232 206.515 157.424 206.6C157.595 206.685 157.787 206.824 158 207.016C158.235 207.187 158.427 207.368 158.576 207.56C158.725 207.731 158.8 207.88 158.8 208.008C158.8 208.2 158.725 208.381 158.576 208.552C158.427 208.701 158.256 208.904 158.064 209.16C157.787 209.459 157.509 209.8 157.232 210.184C156.976 210.568 156.709 210.973 156.432 211.4L156.56 209.544C156.645 209.373 156.741 209.16 156.848 208.904C156.955 208.648 157.04 208.392 157.104 208.136C156.635 208.349 156.133 208.595 155.6 208.872C155.088 209.128 154.597 209.395 154.128 209.672C153.659 209.949 153.232 210.195 152.848 210.408ZM187.696 201.384C187.888 201.832 188.112 202.259 188.368 202.664C188.624 203.069 188.955 203.272 189.36 203.272C189.68 203.272 190.139 203.219 190.736 203.112C191.333 203.005 191.973 202.877 192.656 202.728C193.36 202.557 194.021 202.387 194.64 202.216C195.259 202.045 195.749 201.917 196.112 201.832C196.368 201.747 196.549 201.672 196.656 201.608C196.784 201.523 196.901 201.448 197.008 201.384C197.115 201.32 197.232 201.288 197.36 201.288C197.616 201.288 197.893 201.363 198.192 201.512C198.491 201.64 198.789 201.821 199.088 202.056C199.387 202.291 199.621 202.536 199.792 202.792C199.984 203.048 200.08 203.283 200.08 203.496C200.08 203.688 199.995 203.848 199.824 203.976C199.675 204.104 199.461 204.243 199.184 204.392C198.907 204.541 198.587 204.787 198.224 205.128C197.819 205.469 197.275 205.949 196.592 206.568C195.931 207.187 195.227 207.859 194.48 208.584C193.755 209.288 193.061 209.971 192.4 210.632C191.739 211.272 191.237 211.795 190.896 212.2C190.768 212.307 190.725 212.403 190.768 212.488C190.832 212.573 190.928 212.584 191.056 212.52C191.803 212.243 192.635 211.987 193.552 211.752C194.491 211.517 195.493 211.4 196.56 211.4C197.947 211.4 199.227 211.688 200.4 212.264C201.573 212.84 202.501 213.672 203.184 214.76C203.888 215.827 204.219 217.096 204.176 218.568C204.155 219.891 203.76 221.107 202.992 222.216C202.224 223.325 201.115 224.211 199.664 224.872C198.235 225.533 196.507 225.864 194.48 225.864C193.285 225.864 192.229 225.715 191.312 225.416C190.416 225.117 189.712 224.691 189.2 224.136C188.709 223.56 188.464 222.888 188.464 222.12C188.464 221.267 188.795 220.552 189.456 219.976C190.139 219.4 191.003 219.112 192.048 219.112C192.859 219.112 193.648 219.304 194.416 219.688C195.184 220.051 195.835 220.605 196.368 221.352C196.901 222.099 197.221 223.059 197.328 224.232L195.44 224.52C195.291 223.133 194.853 222.088 194.128 221.384C193.424 220.659 192.571 220.296 191.568 220.296C191.013 220.296 190.544 220.445 190.16 220.744C189.776 221.043 189.584 221.459 189.584 221.992C189.584 222.547 189.936 223.037 190.64 223.464C191.365 223.891 192.496 224.104 194.032 224.104C195.824 224.104 197.317 223.827 198.512 223.272C199.707 222.717 200.603 221.981 201.2 221.064C201.797 220.147 202.107 219.155 202.128 218.088C202.149 217.128 201.936 216.221 201.488 215.368C201.04 214.515 200.368 213.821 199.472 213.288C198.576 212.733 197.467 212.456 196.144 212.456C194.629 212.456 193.243 212.755 191.984 213.352C190.725 213.928 189.573 214.696 188.528 215.656C187.483 216.595 186.512 217.64 185.616 218.792C185.381 219.091 185.179 219.304 185.008 219.432C184.837 219.539 184.635 219.581 184.4 219.56C184.208 219.56 184.016 219.453 183.824 219.24C183.632 219.005 183.547 218.685 183.568 218.28C183.589 217.981 183.675 217.715 183.824 217.48C183.995 217.224 184.261 216.904 184.624 216.52C185.627 215.475 186.64 214.429 187.664 213.384C188.709 212.317 189.712 211.304 190.672 210.344C191.653 209.363 192.549 208.445 193.36 207.592C194.192 206.717 194.896 205.949 195.472 205.288C196.069 204.605 196.507 204.051 196.784 203.624C196.933 203.389 196.965 203.229 196.88 203.144C196.816 203.059 196.688 203.037 196.496 203.08C196.155 203.144 195.653 203.283 194.992 203.496C194.352 203.709 193.691 203.944 193.008 204.2C192.347 204.435 191.781 204.648 191.312 204.84C191.013 204.968 190.747 205.128 190.512 205.32C190.277 205.491 190.021 205.576 189.744 205.576C189.339 205.576 188.944 205.448 188.56 205.192C188.197 204.936 187.877 204.637 187.6 204.296C187.344 203.933 187.173 203.592 187.088 203.272C187.024 202.995 187.003 202.707 187.024 202.408C187.045 202.088 187.077 201.779 187.12 201.48L187.696 201.384Z" fill="white"/>
</svg>
