<?xml version="1.0" encoding="UTF-8"?>
<svg id="_レイヤー_1" xmlns="http://www.w3.org/2000/svg" version="1.1" viewBox="0 0 118.5 118.5">
  <!-- Generator: Adobe Illustrator 29.3.1, SVG Export Plug-In . SVG Version: 2.1.0 Build 151)  -->
  <defs>
    <style>
      .st0 {
        fill: none;
        stroke: #1d1d1b;
        stroke-linecap: round;
        stroke-linejoin: round;
        stroke-width: 8.5px;
      }
    </style>
  </defs>
  <path class="st0" d="M16.1,10.1C.3,25.9.3,51.7,16.1,67.5"/>
  <path class="st0" d="M51,102.3c15.9,15.9,41.6,15.9,57.5,0"/>
  <line class="st0" x1="16.1" y1="67.5" x2="51" y2="102.3"/>
  <path class="st0" d="M39.6,55.7c-4.5-4.5-4.5-11.9,0-16.4"/>
  <path class="st0" d="M79.2,78.9c-4.5,4.5-11.9,4.5-16.4,0"/>
  <line class="st0" x1="39.6" y1="55.7" x2="62.8" y2="78.9"/>
  <line class="st0" x1="22" y1="4.2" x2="48.3" y2="30.6"/>
  <line class="st0" x1="114.2" y1="96.5" x2="87.9" y2="70.2"/>
  <line class="st0" x1="16.1" y1="10.1" x2="22" y2="4.2"/>
  <line class="st0" x1="39.6" y1="39.3" x2="48.3" y2="30.6"/>
  <line class="st0" x1="79.2" y1="78.9" x2="87.9" y2="70.2"/>
  <line class="st0" x1="108.4" y1="102.3" x2="114.2" y2="96.5"/>
</svg>